<?xml version="1.0" standalone="no"?>
<!DOCTYPE svg PUBLIC "-//W3C//DTD SVG 20010904//EN"
 "http://www.w3.org/TR/2001/REC-SVG-20010904/DTD/svg10.dtd">
<svg version="1.0" xmlns="http://www.w3.org/2000/svg"
 width="700.000000pt" height="700.000000pt" viewBox="0 0 700.000000 700.000000"
 preserveAspectRatio="xMidYMid meet">
<metadata>
Created by potrace 1.14, written by Peter Selinger 2001-2017
</metadata>
<g transform="translate(0.000000,700.000000) scale(0.100000,-0.100000)"
fill="#000000" stroke="none">
<path d="M487 6362 c-15 -10 -39 -34 -52 -52 -23 -31 -25 -43 -25 -135 0 -91
2 -104 24 -134 32 -43 52 -57 109 -77 76 -26 77 -28 77 -406 0 -373 1 -370
-90 -409 -53 -23 -106 -74 -115 -112 -3 -12 -4 -204 -3 -427 l3 -406 25 -31
c14 -17 45 -43 70 -57 57 -31 82 -59 111 -120 16 -35 35 -56 68 -77 79 -48
102 -70 129 -128 41 -84 67 -96 213 -92 l118 3 41 -39 c45 -42 59 -89 41 -135
-10 -25 -15 -28 -61 -28 -47 0 -54 -4 -95 -45 l-45 -44 0 -431 c0 -237 -5
-474 -11 -526 -9 -86 -8 -98 8 -127 23 -38 87 -66 154 -66 44 -1 47 -3 53 -32
3 -17 6 -90 6 -161 0 -116 2 -133 21 -159 39 -55 112 -75 157 -43 21 14 22 22
22 164 0 82 -4 160 -10 174 -16 44 -63 63 -162 65 l-28 1 0 609 c0 682 -7 621
76 621 58 0 98 21 114 61 11 26 11 54 2 153 -15 148 -15 298 -1 349 11 42 37
62 93 73 21 4 53 19 70 35 30 27 31 30 34 129 6 171 -13 230 -73 230 -34 0
-102 -35 -142 -73 l-33 -31 0 -106 c0 -89 -3 -109 -17 -122 -11 -10 -57 -20
-123 -28 -103 -11 -105 -11 -122 10 -10 12 -18 29 -18 37 0 27 33 72 57 78 32
8 88 59 103 95 9 22 10 41 2 72 -19 78 -25 164 -12 187 25 47 66 61 183 61 60
0 118 -5 130 -11 40 -21 87 -72 87 -96 0 -25 43 -53 84 -53 33 0 82 43 95 83
5 18 12 66 16 107 10 125 17 185 22 193 2 4 25 7 51 7 34 0 58 7 85 25 59 41
67 66 67 214 0 140 7 161 55 161 78 0 135 62 159 172 5 22 13 28 44 33 83 13
152 77 152 142 0 40 19 59 69 67 75 12 131 80 131 159 0 32 5 47 16 51 9 3 79
6 157 6 123 0 146 3 174 20 42 25 56 53 63 120 l5 55 504 3 c397 2 506 0 513
-10 4 -7 8 -37 8 -65 0 -44 5 -58 29 -85 l29 -33 154 -3 c84 -1 163 -4 174 -7
19 -4 22 -13 26 -75 3 -59 8 -74 30 -96 22 -22 38 -27 97 -32 68 -4 71 -6 72
-31 1 -55 11 -116 20 -133 13 -24 50 -38 102 -38 81 0 87 -5 87 -72 0 -104 34
-138 139 -138 73 0 71 5 71 -192 0 -149 8 -190 39 -204 9 -4 48 -10 86 -13
l70 -6 2 -35 c8 -111 26 -259 34 -288 26 -82 153 -83 178 -1 8 28 24 47 56 69
24 16 50 30 57 30 22 0 127 29 192 52 48 18 61 28 72 55 16 38 73 104 115 134
27 19 30 19 134 3 127 -20 154 -37 185 -122 26 -69 42 -88 86 -102 18 -6 47
-27 65 -47 28 -33 31 -41 25 -82 -3 -25 -18 -82 -32 -125 l-27 -79 -20 29
c-41 60 -242 245 -295 270 -114 57 -185 37 -197 -54 -11 -83 -35 -163 -56
-193 l-21 -29 22 -35 c25 -41 65 -71 117 -89 24 -8 45 -25 56 -44 17 -28 17
-33 2 -61 -17 -35 -21 -35 -132 -21 -144 19 -140 14 -123 156 11 94 11 96 -12
121 -29 32 -134 83 -171 83 -16 0 -38 -10 -52 -25 -24 -23 -25 -29 -25 -155 0
-180 2 -184 145 -227 51 -15 60 -49 59 -213 0 -80 -5 -182 -10 -228 -8 -62 -7
-90 2 -112 18 -41 69 -70 124 -70 25 0 51 -4 58 -8 10 -7 12 -136 10 -613 l-3
-604 -51 -6 c-60 -8 -79 -17 -119 -59 l-30 -31 -3 -157 c-2 -106 -7 -159 -15
-164 -7 -4 -33 -8 -58 -8 -32 0 -55 -7 -73 -21 -49 -39 -56 -66 -56 -222 0
-98 -4 -147 -12 -155 -7 -7 -32 -12 -57 -12 -89 0 -141 -54 -141 -146 l0 -54
-45 0 c-85 0 -155 -60 -155 -131 0 -78 -2 -79 -166 -79 -160 0 -186 -7 -224
-60 -13 -18 -24 -52 -27 -83 -3 -29 -7 -54 -10 -57 -2 -3 -75 -6 -161 -8 -86
-2 -169 -7 -183 -13 -34 -13 -50 -49 -58 -124 l-6 -60 -711 -3 -711 -2 -7 31
c-3 17 -6 49 -6 70 0 26 -8 47 -24 66 l-24 28 -171 5 c-195 6 -191 4 -191 87
0 44 -5 58 -29 85 l-29 33 -174 5 -173 5 -5 62 c-4 47 -11 67 -30 88 -36 39
-73 55 -125 55 -44 0 -45 1 -46 33 -1 17 -1 35 0 40 3 21 -31 77 -61 101 -25
19 -47 26 -79 26 -24 0 -49 4 -55 8 -7 4 -13 63 -17 154 -5 162 -17 196 -74
229 -34 20 -100 14 -112 -10 -4 -9 -11 -74 -14 -144 -6 -114 -5 -133 12 -165
25 -49 67 -72 129 -72 56 0 62 -7 62 -71 0 -83 63 -139 155 -139 l45 0 0 -45
c0 -90 58 -155 138 -155 65 0 72 -6 72 -62 0 -55 20 -92 67 -124 23 -16 53
-20 183 -24 l155 -5 5 -55 c3 -30 14 -68 24 -83 33 -49 62 -57 208 -57 177 0
178 -1 178 -59 0 -55 26 -103 72 -131 32 -19 52 -20 652 -20 l620 0 34 23 c40
27 68 78 71 132 1 22 7 43 14 47 7 4 77 8 155 8 128 0 147 2 172 20 44 31 70
81 70 134 l0 46 153 0 c152 0 154 0 189 28 49 37 68 72 68 125 0 51 8 57 76
57 51 0 98 21 114 49 5 11 10 44 10 73 0 29 4 58 8 64 4 6 35 14 70 17 64 7
105 26 117 55 4 9 10 46 14 82 l6 65 65 6 c127 12 133 22 140 239 l5 165 50 5
c61 7 87 20 120 64 24 32 25 38 25 174 0 77 3 147 6 156 4 11 19 16 51 16 55
0 104 27 132 74 20 33 21 47 21 547 0 495 -1 515 -20 547 -28 46 -76 72 -131
72 -52 0 -59 8 -59 66 0 45 22 87 59 113 31 23 84 26 194 12 87 -11 139 20
168 101 16 46 49 82 97 107 49 25 76 56 102 113 21 48 70 98 96 98 8 0 35 20
59 45 l45 44 0 427 0 427 -26 34 c-14 18 -51 46 -82 62 -94 48 -92 39 -92 406
0 364 -1 357 85 406 30 17 68 46 85 65 30 34 30 36 30 151 l0 116 -44 43 -43
44 -216 0 -216 0 -36 -31 c-40 -35 -65 -77 -65 -109 0 -30 -32 -56 -78 -64
-54 -8 -107 -55 -140 -125 -25 -50 -31 -55 -80 -70 -68 -21 -119 -62 -143
-118 -13 -31 -28 -48 -51 -58 -37 -15 -66 -44 -97 -95 -20 -33 -21 -49 -21
-248 0 -192 2 -217 20 -251 22 -45 73 -91 100 -91 22 0 60 -45 60 -71 0 -31
-51 -79 -95 -89 -22 -5 -92 -12 -156 -16 -112 -7 -117 -6 -128 14 -7 12 -11
77 -11 162 0 128 -2 144 -21 168 -31 40 -70 62 -111 62 -60 0 -68 7 -68 59 0
94 -57 151 -151 151 -54 0 -59 7 -59 82 0 44 -4 54 -34 84 -26 26 -43 34 -69
34 -19 0 -49 3 -66 6 -29 6 -31 9 -31 51 0 97 -45 145 -145 153 l-60 5 -5 60
c-5 65 -26 106 -62 127 -15 8 -80 15 -183 18 l-160 5 -5 55 c-7 67 -21 95 -63
120 -30 19 -54 20 -452 20 -395 0 -422 -1 -449 -19 -40 -27 -66 -70 -66 -113
0 -70 3 -68 -157 -68 -115 0 -152 -3 -180 -17 -44 -21 -73 -67 -73 -116 0 -61
-14 -77 -66 -77 -83 0 -144 -55 -144 -131 0 -48 -17 -65 -69 -73 -76 -11 -141
-78 -141 -144 0 -39 -23 -62 -61 -62 -63 0 -139 -66 -139 -120 0 -60 -15 -79
-71 -86 -52 -7 -98 -36 -122 -78 -7 -13 -14 -81 -17 -176 l-5 -155 -70 -3
c-38 -2 -108 0 -155 3 -83 7 -86 8 -128 51 l-44 43 19 31 c10 17 44 47 76 67
86 52 103 84 117 225 6 64 20 159 30 210 19 89 19 94 2 128 -17 34 -42 50
-153 100 -20 9 -49 38 -74 74 -33 49 -52 65 -107 93 -67 33 -83 48 -127 121
-13 22 -41 50 -63 63 -89 54 -103 66 -134 119 -18 30 -47 67 -65 82 l-33 28
-211 0 c-187 0 -213 -2 -238 -18z m5849 -244 c26 -18 49 -38 51 -45 6 -18 -95
-113 -121 -113 -44 0 -59 22 -60 89 -1 55 2 65 23 82 32 26 51 24 107 -13z
m-5546 -18 c27 -21 35 -35 36 -61 0 -32 0 -33 55 -37 98 -7 179 -86 179 -176
0 -46 -13 -84 -33 -98 -6 -3 -30 -9 -55 -13 -38 -6 -48 -3 -69 17 -43 40 -71
108 -74 179 -3 88 -4 89 -61 89 -101 0 -141 50 -86 107 37 38 53 37 108 -7z
m5372 -172 c27 -22 28 -58 2 -127 -48 -127 -127 -220 -227 -267 -65 -30 -68
-30 -99 4 -101 107 -88 210 30 226 75 10 107 35 126 100 9 30 24 60 34 65 24
15 115 13 134 -1z m-5016 -259 c11 -19 -13 -34 -31 -19 -13 11 -13 15 -3 21
18 12 26 11 34 -2z m-121 -76 c19 -7 33 -49 40 -120 8 -86 31 -156 61 -193 20
-23 24 -34 15 -44 -16 -19 -188 -106 -211 -106 -35 0 -57 46 -79 162 -12 62
-21 128 -21 146 0 39 32 106 69 145 23 26 30 28 70 22 24 -4 49 -9 56 -12z
m4908 -239 c41 -21 138 -80 166 -101 3 -2 -6 -14 -18 -27 -27 -28 -81 -46
-169 -53 -64 -5 -68 -4 -95 23 -23 23 -27 34 -23 58 7 34 63 126 77 126 5 0
33 -12 62 -26z m-5183 -313 c0 -5 -7 -14 -15 -21 -8 -7 -15 -10 -15 -7 0 3 -3
12 -6 21 -4 12 0 16 15 16 12 0 21 -4 21 -9z m280 -128 c113 -58 127 -75 85
-105 -29 -21 -98 -90 -175 -174 -19 -22 -60 -61 -89 -89 -30 -27 -72 -72 -93
-98 -37 -47 -38 -48 -47 -25 -10 28 -46 151 -55 188 -7 35 49 133 94 162 28
19 39 36 56 88 17 55 26 68 55 82 49 26 65 23 169 -29z"/>
<path d="M4830 6121 l0 -58 52 -7 c74 -10 102 -28 116 -74 7 -22 12 -54 12
-71 0 -53 15 -69 68 -76 94 -12 123 -24 137 -58 7 -18 16 -53 19 -79 13 -85
26 -51 26 65 l0 112 -52 13 c-88 21 -117 50 -139 137 -7 28 -15 53 -19 57 -3
4 -38 14 -78 22 -79 17 -109 32 -118 58 -11 37 -24 16 -24 -41z"/>
<path d="M3730 5890 c-195 -7 -310 -18 -310 -29 0 -4 5 -12 11 -18 7 -7 13
-27 15 -45 2 -18 6 -44 9 -58 3 -14 8 -42 11 -63 5 -37 45 -121 96 -202 14
-22 44 -71 67 -110 56 -95 71 -111 129 -140 59 -30 108 -83 164 -178 58 -100
93 -134 178 -177 73 -37 97 -58 163 -144 16 -21 47 -50 68 -66 38 -27 39 -29
20 -40 -28 -15 -69 -87 -77 -137 -9 -57 -38 -102 -78 -118 -42 -18 -72 -55
-88 -107 l-11 -39 79 -82 c44 -45 93 -99 108 -119 39 -54 95 -83 227 -116 140
-36 146 -39 198 -101 79 -95 139 -111 283 -77 l57 13 36 -51 c20 -28 49 -71
65 -96 16 -25 58 -77 93 -117 67 -73 91 -123 117 -233 17 -72 68 -126 129
-136 59 -9 102 -41 118 -89 7 -22 22 -49 33 -60 20 -19 20 -19 35 0 13 17 15
40 9 137 -3 65 -7 126 -9 135 -2 10 -4 52 -4 93 l-1 75 -47 35 c-92 68 -119
161 -132 450 l-6 144 -35 23 c-115 73 -129 103 -130 269 0 139 -10 162 -78
182 -100 30 -131 89 -132 247 0 111 -12 155 -42 155 -30 0 -103 47 -129 83
-28 39 -29 44 -29 153 0 63 -5 124 -11 138 -8 16 -30 32 -64 46 -65 26 -108
70 -132 134 -17 47 -22 51 -77 73 -73 28 -108 60 -135 124 -12 27 -29 52 -39
57 -9 5 -66 12 -127 16 -60 4 -127 11 -147 17 -49 13 -94 52 -120 103 -26 52
-33 56 -93 54 -27 -1 -133 -5 -235 -8z"/>
<path d="M2326 4235 c-36 -41 -70 -122 -90 -217 -9 -40 -22 -102 -30 -138 -22
-102 -26 -239 -18 -600 l7 -335 39 -78 c37 -74 98 -137 132 -137 7 0 34 18 59
40 62 54 102 73 215 103 123 33 140 40 178 72 49 41 40 116 -23 186 l-35 39 0
118 c0 123 6 142 44 142 11 0 40 10 64 21 45 22 81 77 82 125 0 11 8 28 18 37
25 23 48 2 57 -53 10 -61 63 -115 123 -125 62 -10 72 -30 72 -150 0 -101 0
-101 33 -133 61 -59 109 -72 325 -88 108 -7 243 -14 298 -14 97 0 102 1 108
23 3 12 6 90 6 172 1 158 7 185 46 185 37 1 104 39 123 71 35 57 36 96 4 142
-40 58 -217 216 -266 237 -23 10 -92 32 -152 49 -129 35 -168 50 -214 85 -89
67 -273 91 -454 61 -175 -28 -341 8 -549 121 -75 41 -144 74 -155 73 -10 0
-31 -15 -47 -34z"/>
<path d="M1935 4117 c-25 -40 -78 -75 -134 -90 -27 -7 -47 -19 -52 -32 -13
-32 -38 -190 -49 -310 -13 -139 -37 -185 -120 -227 -30 -15 -59 -29 -64 -31
-20 -7 -24 -130 -19 -586 7 -549 -1 -503 96 -539 30 -12 79 -32 108 -46 l53
-26 38 25 c23 15 49 46 66 78 15 28 61 86 103 128 42 42 80 86 84 98 11 35
-15 147 -43 189 l-25 37 17 110 c11 73 16 176 16 306 0 177 2 199 19 220 21
28 46 83 67 149 16 51 18 213 4 275 -24 105 -49 194 -61 216 -16 28 -70 89
-78 89 -4 -1 -15 -15 -26 -33z"/>
<path d="M4386 3595 c10 -25 41 -37 48 -19 11 28 6 34 -24 34 -22 0 -28 -4
-24 -15z"/>
<path d="M4574 3484 c-5 -1 -26 -5 -47 -9 -51 -8 -62 -38 -71 -180 -4 -65 -12
-114 -19 -121 -7 -6 -34 -19 -60 -29 -54 -19 -83 -56 -93 -117 -4 -21 -18 -48
-34 -63 l-27 -26 -87 22 c-66 17 -91 27 -103 45 -20 31 -27 30 -39 -2 -15 -43
-110 -73 -289 -89 -386 -37 -425 -47 -546 -142 -86 -67 -138 -83 -271 -83
-101 0 -115 -2 -155 -26 -30 -17 -53 -42 -74 -79 -32 -57 -70 -94 -136 -133
-21 -13 -56 -47 -77 -77 -22 -29 -59 -67 -82 -84 -55 -38 -89 -92 -109 -172
-28 -113 -46 -162 -96 -264 -44 -90 -50 -110 -58 -200 -10 -114 -4 -135 66
-215 22 -25 47 -58 57 -75 22 -37 74 -74 146 -104 78 -32 127 -68 161 -118
l30 -43 113 0 c109 0 114 -1 154 -30 42 -30 85 -94 97 -142 15 -59 21 -61 265
-53 l222 8 66 58 c112 100 138 99 249 -10 l63 -61 218 0 c234 0 262 6 262 52
0 32 -46 86 -79 93 -36 8 -94 59 -119 105 -10 19 -50 59 -88 88 -38 30 -105
89 -149 131 -87 85 -133 113 -222 136 -32 8 -65 18 -75 21 -10 3 -27 27 -39
53 -29 69 -64 90 -193 118 -114 24 -148 39 -166 72 -15 28 0 109 24 138 l22
25 32 -30 c40 -37 95 -51 252 -63 69 -5 132 -12 141 -14 8 -3 36 -29 61 -59
59 -67 90 -82 243 -111 131 -25 156 -35 247 -96 65 -45 174 -83 276 -99 39 -6
192 -12 339 -13 l268 -2 50 29 c28 16 73 47 102 67 55 41 57 46 99 209 9 36
33 104 54 151 l37 86 -23 179 c-24 197 -37 242 -79 298 -25 32 -33 37 -59 32
-17 -3 -67 -8 -111 -11 -91 -8 -155 -33 -175 -70 -20 -37 -80 -74 -157 -97
-101 -30 -176 -72 -212 -117 -45 -57 -110 -91 -194 -103 -87 -12 -112 -26
-127 -75 -7 -21 -16 -41 -19 -46 -4 -4 -54 -13 -112 -21 -89 -11 -110 -11
-146 1 -24 8 -46 19 -49 24 -7 12 93 59 126 59 42 0 96 19 115 40 10 11 23 41
30 67 l11 48 140 71 c123 62 141 75 158 108 22 44 86 89 164 113 38 12 62 28
85 56 18 21 64 71 104 111 101 103 113 131 113 258 0 80 -7 127 -28 209 -33
126 -45 146 -116 198 -30 22 -67 59 -83 83 -15 23 -45 59 -66 80 -36 36 -58
43 -103 32z m-320 -855 c41 -32 49 -55 31 -82 -37 -57 -83 -56 -124 2 l-20 28
36 37 c20 20 39 36 43 36 4 0 19 -9 34 -21z m-1014 -224 c32 -33 33 -35 16
-59 -41 -64 -83 -66 -125 -7 l-21 29 34 36 c18 20 40 36 48 36 8 0 29 -16 48
-35z m-419 -221 c36 -18 34 -32 -9 -57 l-32 -19 -26 29 -26 28 22 17 c27 22
33 22 71 2z m213 -215 c43 -12 38 -24 -15 -33 -29 -5 -38 -3 -43 10 -6 16 0
34 12 34 4 0 24 -5 46 -11z m1661 -195 c14 -22 14 -26 0 -48 -9 -14 -27 -32
-40 -40 -23 -15 -26 -14 -60 15 -19 17 -35 39 -35 49 0 10 16 32 35 49 34 29
37 30 60 15 13 -8 31 -26 40 -40z m-1247 -339 c8 -7 18 -32 23 -55 10 -43 9
-45 -29 -83 -39 -38 -40 -39 -65 -22 -14 9 -33 27 -41 40 -19 28 -10 60 31
113 26 34 51 36 81 7z m-634 -56 c14 -17 26 -38 26 -48 0 -22 -49 -121 -60
-121 -13 0 -49 64 -56 99 -5 24 -1 38 20 66 15 19 31 35 36 35 4 0 20 -14 34
-31z"/>
<path d="M1099 1559 c-24 -9 -25 -12 -18 -57 4 -26 8 -69 8 -97 1 -34 9 -62
25 -89 22 -37 24 -38 34 -19 11 19 8 194 -4 251 -5 24 -7 25 -45 11z"/>
<path d="M5841 1361 c-22 -22 -19 -54 9 -91 l18 -24 23 47 c22 45 22 47 4 67
-22 25 -30 25 -54 1z"/>
<path d="M1274 1176 c-52 -23 -49 -41 12 -60 49 -16 56 -16 85 -1 l31 17 -28
29 c-30 32 -53 35 -100 15z"/>
<path d="M5641 1163 c-26 -18 -27 -35 -1 -58 20 -18 22 -18 67 4 40 19 44 24
32 37 -26 25 -75 34 -98 17z"/>
<path d="M5426 969 c-32 -25 -33 -49 -3 -77 30 -28 38 -28 70 6 25 26 26 29
11 50 -26 38 -49 44 -78 21z"/>
<path d="M1780 540 c-97 -9 -144 -20 -133 -30 13 -13 103 -41 163 -51 167 -30
151 -30 187 6 18 18 33 37 33 42 0 5 -16 17 -35 26 -38 18 -86 19 -215 7z"/>
<path d="M5222 521 c-10 -6 -9 -12 5 -30 18 -21 19 -22 88 -8 39 8 88 18 110
23 l40 8 -55 7 c-77 10 -173 10 -188 0z"/>
</g>
</svg>
