<svg width="24" height="24" viewBox="0 0 24 24" fill="none" xmlns="http://www.w3.org/2000/svg">
<path d="M12 3C6.201 3 1.5 7.701 1.5 13.5C1.5 19.299 6.201 24 12 24C17.799 24 22.5 19.299 22.5 13.5C22.5 7.701 17.799 3 12 3ZM12 21.9375C7.34025 21.9375 3.5625 18.1597 3.5625 13.5C3.5625 8.84025 7.34025 5.0625 12 5.0625C16.6597 5.0625 20.4375 8.84025 20.4375 13.5C20.4375 18.1597 16.6597 21.9375 12 21.9375ZM21.909 6.7305C22.2847 6.07275 22.5 5.3115 22.5 4.5C22.5 2.0145 20.4855 0 18 0C16.551 0 15.2625 0.68475 14.4398 1.74825C17.5305 2.3865 20.187 4.2135 21.9097 6.7305H21.909ZM9.561 1.74825C8.73825 0.68475 7.449 0 6 0C3.5145 0 1.5 2.0145 1.5 4.5C1.5 5.3115 1.71525 6.0735 2.091 6.7305C3.81375 4.2135 6.4695 2.3865 9.561 1.74825V1.74825Z" fill="black"/>
<path d="M12 13.5V7.5H10.5V15H16.5V13.5H12Z" fill="black"/>
</svg>
