<svg width="24" height="24" viewBox="0 0 24 24" fill="none" xmlns="http://www.w3.org/2000/svg">
<path d="M14.1176 1.5C19.5755 1.5 23.9999 6.201 23.9999 12C23.9999 17.799 19.5755 22.5 14.1176 22.5V20.25C16.1915 20.25 18.1418 19.392 19.6079 17.8335C21.074 16.275 21.8823 14.2035 21.8823 12C21.8823 9.7965 21.0748 7.72425 19.6079 6.1665C18.1411 4.60875 16.1915 3.75 14.1176 3.75C12.0437 3.75 10.0933 4.608 8.62722 6.1665C7.49922 7.365 6.76157 8.86725 6.48063 10.5H10.5882L5.64699 16.5L0.705811 10.5H4.33616C5.02158 5.412 9.13899 1.5 14.1176 1.5ZM18.3529 10.5V13.5H12.7058V6H15.5293V10.5H18.3529Z" fill="black"/>
</svg>
