<svg width="29" height="31" viewBox="0 0 29 31" fill="none" xmlns="http://www.w3.org/2000/svg">
<g filter="url(#filter0_d_2_6672)">
<path fill-rule="evenodd" clip-rule="evenodd" d="M23.6464 22.3535L23.2929 22L18.6548 17.3619L18.3053 17.6415C16.8511 18.8047 15.0074 19.5 13 19.5C8.30558 19.5 4.5 15.6944 4.5 11C4.5 6.30558 8.30558 2.5 13 2.5C17.6944 2.5 21.5 6.30558 21.5 11C21.5 13.0075 20.8047 14.8512 19.6414 16.3054L19.3619 16.6548L24.3478 21.6408L24.3507 21.6436C24.4434 21.7349 24.5 21.8604 24.5 22C24.5 22.2761 24.2761 22.5 24 22.5C23.8618 22.5 23.7375 22.4446 23.6464 22.3535ZM13 3.5C8.85786 3.5 5.5 6.85786 5.5 11C5.5 15.1421 8.85786 18.5 13 18.5C17.1421 18.5 20.5 15.1421 20.5 11C20.5 6.85786 17.1421 3.5 13 3.5Z" fill="black"/>
</g>
<defs>
<filter id="filter0_d_2_6672" x="-2" y="0" width="32" height="32" filterUnits="userSpaceOnUse" color-interpolation-filters="sRGB">
<feFlood flood-opacity="0" result="BackgroundImageFix"/>
<feColorMatrix in="SourceAlpha" type="matrix" values="0 0 0 0 0 0 0 0 0 0 0 0 0 0 0 0 0 0 127 0" result="hardAlpha"/>
<feOffset dy="4"/>
<feGaussianBlur stdDeviation="2"/>
<feComposite in2="hardAlpha" operator="out"/>
<feColorMatrix type="matrix" values="0 0 0 0 0 0 0 0 0 0 0 0 0 0 0 0 0 0 0.25 0"/>
<feBlend mode="normal" in2="BackgroundImageFix" result="effect1_dropShadow_2_6672"/>
<feBlend mode="normal" in="SourceGraphic" in2="effect1_dropShadow_2_6672" result="shape"/>
</filter>
</defs>
</svg>
