<svg width="24" height="24" viewBox="0 0 24 24" fill="none" xmlns="http://www.w3.org/2000/svg">
<g clip-path="url(#clip0_8_4652)">
<path d="M12 2.17425L22.0567 22.2188H1.94246L11.9992 2.17425H12ZM12 0C11.4825 0 10.9657 0.34875 10.5727 1.04625L0.328458 21.4628C-0.456042 22.8578 0.211458 24 1.81196 24H22.1865C23.787 24 24.4552 22.8585 23.67 21.4628L13.4257 1.04625C13.0335 0.34875 12.516 0 11.9985 0L12 0Z" fill="black"/>
<path d="M13.5 19.5C13.5 20.3288 12.8288 21 12 21C11.1712 21 10.5 20.3288 10.5 19.5C10.5 18.6712 11.1712 18 12 18C12.8288 18 13.5 18.6712 13.5 19.5Z" fill="black"/>
<path d="M12 16.5C11.1712 16.5 10.5 15.8288 10.5 15V10.5C10.5 9.67125 11.1712 9 12 9C12.8288 9 13.5 9.67125 13.5 10.5V15C13.5 15.8288 12.8288 16.5 12 16.5Z" fill="black"/>
</g>
<defs>
<clipPath id="clip0_8_4652">
<rect width="24" height="24" fill="white"/>
</clipPath>
</defs>
</svg>
